<?xml version="1.0" encoding="iso-8859-1"?>
<!-- Generator: Adobe Illustrator 19.0.0, SVG Export Plug-In . SVG Version: 6.00 Build 0)  -->
<svg version="1.1" id="Layer_1" xmlns="http://www.w3.org/2000/svg" xmlns:xlink="http://www.w3.org/1999/xlink" x="0px" y="0px"
	 viewBox="0 0 511.999 511.999" style="enable-background:new 0 0 511.999 511.999;" xml:space="preserve">
<g>
	<path style="fill:#CC6F56;" d="M322.253,44.138h-79.448C119.774,44.138,101.563,0,101.563,0s-48.19,77.674-32.124,239.033
		c2.737,27.419,15.175,52.983,34.657,72.466l6.294,6.294h300.138c22.616-22.616,35.31-53.274,35.31-85.248v-82.476
		C445.839,38.073,322.253,44.138,322.253,44.138"/>
	<path style="fill:#DBB38D;" d="M314.433,467.517c-17.064,11.573-32.106,26.827-54.219,26.827c-22.104,0-37.155-15.254-54.21-26.827
		c-8.324-5.641-16.772-11.149-24.991-16.949v61.431H339.91v-61.758C331.532,456.173,322.917,461.77,314.433,467.517"/>
	<path style="fill:#FDD7AD;" d="M410.529,194.207c0-7.318-1.483-14.283-4.158-20.63c-10.099-23.905-38.382-33.66-62.791-24.832
		c-13.294,4.811-38.179,10.152-83.121,10.152s-69.826-5.341-83.121-10.152c-24.408-8.828-52.692,0.927-62.791,24.832
		c-2.675,6.338-4.158,13.312-4.158,20.63l-0.238,80.446c0,55.428,4.317,116.401,46.124,156.089
		c14.998,14.239,32.662,25.203,49.726,36.776c17.064,11.564,32.106,26.827,54.219,26.827s37.155-15.263,54.21-26.827
		c17.064-11.573,34.728-22.537,49.726-36.776c41.807-39.689,46.371-101.667,46.371-157.087V194.207z"/>
</g>
<g>
</g>
<g>
</g>
<g>
</g>
<g>
</g>
<g>
</g>
<g>
</g>
<g>
</g>
<g>
</g>
<g>
</g>
<g>
</g>
<g>
</g>
<g>
</g>
<g>
</g>
<g>
</g>
<g>
</g>
</svg>
