<?xml version="1.0" encoding="iso-8859-1"?>
<!-- Generator: Adobe Illustrator 19.0.0, SVG Export Plug-In . SVG Version: 6.00 Build 0)  -->
<svg version="1.1" id="Layer_1" xmlns="http://www.w3.org/2000/svg" xmlns:xlink="http://www.w3.org/1999/xlink" x="0px" y="0px"
	 viewBox="0 0 505.29 505.29" style="enable-background:new 0 0 505.29 505.29;" xml:space="preserve">
<g>
	<path style="fill:#DBB38D;" d="M306.861,460.808c-17.064,11.573-32.106,26.827-54.219,26.827
		c-22.104,0-37.155-15.254-54.219-26.827c-8.316-5.641-16.764-11.14-24.982-16.94v61.422h158.897v-61.758
		C323.96,449.456,315.335,455.061,306.861,460.808"/>
	<path style="fill:#805333;" d="M129.059,408.188c-20.233,16.181,0.274,61.793,0.274,61.793
		C35.61,442.959,18.131,307.403,15.086,245.23c-1.192-24.399,0.468-48.905,6.426-72.598C37.517,109.056,74.84,67.893,114.935,41.287
		c82.97-55.049,192.45-55.049,275.421,0c40.095,26.606,77.418,67.769,93.422,131.346c5.959,23.693,7.618,48.199,6.426,72.598
		c-3.046,62.173-20.524,197.729-114.247,224.75c0,0,20.507-45.612,0.274-61.793"/>
	<path style="fill:#FDD7AD;" d="M402.714,267.946c0-22.89-10.664-44.465-28.849-58.368L254.34,118.178
		c-0.998-0.768-2.392-0.768-3.39,0l-119.526,91.401c-18.185,13.903-28.849,35.478-28.849,58.368
		c0,55.42,4.317,116.401,46.133,156.089c4.096,3.893,8.43,7.512,12.862,10.999c11.776,9.251,24.461,17.373,36.855,25.777
		c17.064,11.573,32.106,26.827,54.219,26.827s37.155-15.254,54.219-26.827c17.064-11.573,34.719-22.546,49.717-36.776
		C398.397,384.347,402.714,323.366,402.714,267.946"/>
</g>
<g>
</g>
<g>
</g>
<g>
</g>
<g>
</g>
<g>
</g>
<g>
</g>
<g>
</g>
<g>
</g>
<g>
</g>
<g>
</g>
<g>
</g>
<g>
</g>
<g>
</g>
<g>
</g>
<g>
</g>
</svg>
