<?xml version="1.0" encoding="iso-8859-1"?>
<!-- Generator: Adobe Illustrator 19.0.0, SVG Export Plug-In . SVG Version: 6.00 Build 0)  -->
<svg version="1.1" id="Layer_1" xmlns="http://www.w3.org/2000/svg" xmlns:xlink="http://www.w3.org/1999/xlink" x="0px" y="0px"
	 viewBox="0 0 511.998 511.998" style="enable-background:new 0 0 511.998 511.998;" xml:space="preserve">
<g>
	<path style="fill:#DBB38D;" d="M310.214,467.516c-17.064,11.573-32.106,26.827-54.219,26.827c-22.104,0-37.155-15.254-54.21-26.827
		c-8.324-5.641-16.772-11.14-24.991-16.94v61.422H335.69V450.24C327.313,456.164,318.689,461.769,310.214,467.516"/>
	<path style="fill:#FDD7AD;" d="M399.946,283.99C288.348,156.449,176.732,150.067,176.732,150.067
		c-31.453,16.004,26.483,61.793,26.483,61.793c-50.211,0-79.448-35.31-79.448-35.31s-17.841,39.883-17.841,98.101
		c0,55.428,4.326,116.401,46.133,156.089c14.998,14.239,32.662,25.203,49.726,36.776c17.055,11.573,32.097,26.827,54.21,26.827
		c22.113,0,37.155-15.254,54.219-26.827c17.064-11.573,34.631-22.634,49.726-36.776c41.295-38.7,46.045-104.801,46.292-129.73
		C406.294,294.769,404.06,288.695,399.946,283.99"/>
	<path style="fill:#805333;" d="M476.688,247.171c1.766-95.559-32.742-156.142-75.776-193.315
		c-83.112-71.804-208.905-71.812-289.827,0c-42.531,37.738-77.542,97.757-75.776,193.315c0,0-4.414,199.724,88.276,256
		c0,0-4.414-61.793,35.31-61.793h5.553c-4.273-3.372-8.43-6.877-12.385-10.637c-41.816-39.689-46.133-100.661-46.133-156.089
		c0-58.218,17.832-98.101,17.832-98.101s29.237,35.31,79.448,35.31c0,0-57.935-45.798-26.483-61.793
		c0,0,111.625,6.382,223.223,133.923c4.105,4.696,6.338,10.778,6.285,17.02c-0.256,24.929-4.996,91.03-46.301,129.73
		c-3.999,3.743-8.174,7.256-12.473,10.637h5.641c39.724,0,35.31,61.793,35.31,61.793
		C481.102,446.895,476.688,247.171,476.688,247.171"/>
</g>
<g>
</g>
<g>
</g>
<g>
</g>
<g>
</g>
<g>
</g>
<g>
</g>
<g>
</g>
<g>
</g>
<g>
</g>
<g>
</g>
<g>
</g>
<g>
</g>
<g>
</g>
<g>
</g>
<g>
</g>
</svg>
